<?xml version="1.0" encoding="UTF-8"?>
<svg xmlns="http://www.w3.org/2000/svg" width="720" height="460" viewBox="0 0 720 460" font-family="Inter, ui-sans-serif, system-ui, sans-serif" role="img"><title>Customer NPS — by Segment</title><rect width="720" height="460" fill="#ffffff"></rect><text class="chart-title" x="64" y="44" font-size="16" font-weight="500" fill="#111111">Customer NPS — by Segment</text><g class="chart-inner" transform="translate(64,56)"><g class="axis-x" transform="translate(0,348)" fill="none" font-size="10" font-family="sans-serif" text-anchor="middle"><path class="domain" stroke="#111111" d="M0.5,4V0.5H628.5V4" stroke-width="1"></path><g class="tick" opacity="1" transform="translate(0.5,0)"><line stroke="#777777" y2="4"></line><text fill="#777777" y="7" dy="0.71em" font-size="14">+0</text></g><g class="tick" opacity="1" transform="translate(48.807692307692314,0)"><line stroke="#777777" y2="4"></line><text fill="#777777" y="7" dy="0.71em" font-size="14">+5</text></g><g class="tick" opacity="1" transform="translate(97.11538461538463,0)"><line stroke="#777777" y2="4"></line><text fill="#777777" y="7" dy="0.71em" font-size="14">+10</text></g><g class="tick" opacity="1" transform="translate(145.42307692307693,0)"><line stroke="#777777" y2="4"></line><text fill="#777777" y="7" dy="0.71em" font-size="14">+15</text></g><g class="tick" opacity="1" transform="translate(193.73076923076925,0)"><line stroke="#777777" y2="4"></line><text fill="#777777" y="7" dy="0.71em" font-size="14">+20</text></g><g class="tick" opacity="1" transform="translate(242.03846153846155,0)"><line stroke="#777777" y2="4"></line><text fill="#777777" y="7" dy="0.71em" font-size="14">+25</text></g><g class="tick" opacity="1" transform="translate(290.34615384615387,0)"><line stroke="#777777" y2="4"></line><text fill="#777777" y="7" dy="0.71em" font-size="14">+30</text></g><g class="tick" opacity="1" transform="translate(338.65384615384613,0)"><line stroke="#777777" y2="4"></line><text fill="#777777" y="7" dy="0.71em" font-size="14">+35</text></g><g class="tick" opacity="1" transform="translate(386.9615384615385,0)"><line stroke="#777777" y2="4"></line><text fill="#777777" y="7" dy="0.71em" font-size="14">+40</text></g><g class="tick" opacity="1" transform="translate(435.2692307692308,0)"><line stroke="#777777" y2="4"></line><text fill="#777777" y="7" dy="0.71em" font-size="14">+45</text></g><g class="tick" opacity="1" transform="translate(483.5769230769231,0)"><line stroke="#777777" y2="4"></line><text fill="#777777" y="7" dy="0.71em" font-size="14">+50</text></g><g class="tick" opacity="1" transform="translate(531.8846153846154,0)"><line stroke="#777777" y2="4"></line><text fill="#777777" y="7" dy="0.71em" font-size="14">+55</text></g><g class="tick" opacity="1" transform="translate(580.1923076923077,0)"><line stroke="#777777" y2="4"></line><text fill="#777777" y="7" dy="0.71em" font-size="14">+60</text></g><g class="tick" opacity="1" transform="translate(628.5,0)"><line stroke="#777777" y2="4"></line><text fill="#777777" y="7" dy="0.71em" font-size="14">+65</text></g></g><g class="axis-y" fill="none" font-size="10" font-family="sans-serif" text-anchor="end"><path class="domain" stroke="#111111" d="M-4,0.5H0.5V348.5H-4" stroke-width="1"></path><g class="tick" opacity="1" transform="translate(0,54)"><line stroke="#777777" x2="-4"></line><text fill="#777777" x="-7" dy="0.32em" font-size="14">SMB</text></g><g class="tick" opacity="1" transform="translate(0,134)"><line stroke="#777777" x2="-4"></line><text fill="#777777" x="-7" dy="0.32em" font-size="14">Mid-Market</text></g><g class="tick" opacity="1" transform="translate(0,214)"><line stroke="#777777" x2="-4"></line><text fill="#777777" x="-7" dy="0.32em" font-size="14">Enterprise</text></g><g class="tick" opacity="1" transform="translate(0,294)"><line stroke="#777777" x2="-4"></line><text fill="#777777" x="-7" dy="0.32em" font-size="14">Strategic</text></g></g><g fill="#111111"><rect rx="2" x="0" y="21.65853658536585" width="212.55384615384617" height="31.51219512195122"></rect><rect rx="2" x="0" y="101.65853658536585" width="338.15384615384613" height="31.51219512195122"></rect><rect rx="2" x="0" y="181.65853658536585" width="396.1230769230769" height="31.51219512195122"></rect><rect rx="2" x="0" y="261.6585365853658" width="541.0461538461539" height="31.51219512195122"></rect></g><text x="106.27692307692308" y="42.41463414634146" text-anchor="middle" font-size="14" fill="#111111">+22</text><text x="169.07692307692307" y="122.41463414634146" text-anchor="middle" font-size="14" fill="#111111">+35</text><text x="198.06153846153845" y="202.41463414634146" text-anchor="middle" font-size="14" fill="#111111">+41</text><text x="270.5230769230769" y="282.4146341463414" text-anchor="middle" font-size="14" fill="#111111">+56</text><g fill="#555555"><rect rx="2" x="0" y="54.829268292682926" width="270.5230769230769" height="31.51219512195122"></rect><rect rx="2" x="0" y="134.8292682926829" width="367.13846153846157" height="31.51219512195122"></rect><rect rx="2" x="0" y="214.8292682926829" width="425.10769230769233" height="31.51219512195122"></rect><rect rx="2" x="0" y="294.8292682926829" width="599.0153846153846" height="31.51219512195122"></rect></g><text x="135.26153846153846" y="75.58536585365853" text-anchor="middle" font-size="14" fill="#111111">+28</text><text x="183.56923076923078" y="155.58536585365852" text-anchor="middle" font-size="14" fill="#111111">+38</text><text x="212.55384615384617" y="235.58536585365852" text-anchor="middle" font-size="14" fill="#111111">+44</text><text x="299.5076923076923" y="315.5853658536585" text-anchor="middle" font-size="14" fill="#111111">+62</text></g><g class="chart-overlay" transform="translate(64,56)"></g><g class="legend" transform="translate(64, 446)"><g transform="translate(0,0)"><rect width="12" height="12" y="-10" rx="2" fill="#111111"></rect><text x="16" font-size="14" fill="#111111">FY23</text></g><g transform="translate(62,0)"><rect width="12" height="12" y="-10" rx="2" fill="#555555"></rect><text x="16" font-size="14" fill="#111111">FY24</text></g></g></svg>